<?xml version="1.0" encoding="UTF-8" standalone="no"?>
<!-- Creator: CorelDRAW -->
<svg xmlns:dc="http://purl.org/dc/elements/1.1/" xmlns:cc="http://creativecommons.org/ns#" xmlns:rdf="http://www.w3.org/1999/02/22-rdf-syntax-ns#" xmlns:svg="http://www.w3.org/2000/svg" xmlns="http://www.w3.org/2000/svg" xmlns:sodipodi="http://sodipodi.sourceforge.net/DTD/sodipodi-0.dtd" xmlns:inkscape="http://www.inkscape.org/namespaces/inkscape" xml:space="preserve" width="271mm" height="195mm" style="shape-rendering:geometricPrecision; text-rendering:geometricPrecision; image-rendering:optimizeQuality; fill-rule:evenodd" viewBox="0 0 271000 194640" id="svg2" sodipodi:version="0.32" inkscape:version="0.46" sodipodi:docname="Brazil Rio de Janeiro location map.svg" inkscape:output_extension="org.inkscape.output.svg.inkscape"><metadata id="metadata390"><rdf:RDF><cc:Work rdf:about=""><dc:format>image/svg+xml</dc:format><dc:type rdf:resource="http://purl.org/dc/dcmitype/StillImage"/></cc:Work></rdf:RDF></metadata><sodipodi:namedview inkscape:window-height="714" inkscape:window-width="1024" inkscape:pageshadow="2" inkscape:pageopacity="0.0" guidetolerance="10.0" gridtolerance="10.0" objecttolerance="10.0" borderopacity="1.0" bordercolor="#666666" pagecolor="#ffffff" id="base" showgrid="false" inkscape:zoom="0.73667236" inkscape:cx="480.1181" inkscape:cy="345.47244" inkscape:window-x="-4" inkscape:window-y="-4" inkscape:current-layer="svg2"/>
 <defs id="defs4"/>
 <path style="fill:#cccccc;stroke:#646464;stroke-width:423.33333969000000000;stroke-miterlimit:4;stroke-dasharray:none;stroke-opacity:1;fill-opacity:1" id="path17" d="M 4221.2558,179133.11 L 4680.6636,178671.41 L 4751.4974,178280.89 L 4892.1531,177712.41 L 5705.7298,177499.87 L 6200.5545,177179.52 L 6129.7207,176895.79 L 6659.9623,176895.79 L 6800.618,176576.47 L 7048.5363,176469.68 L 8037.1738,176185.95 L 8072.5907,176079.17 L 8037.1738,174800.85 L 8602.8323,174587.29 L 8391.3428,174054.4 L 8991.4063,173521.51 L 8815.3337,173237.78 L 8955.9894,172740.48 L 8638.2492,172421.16 L 9133.0739,171639.11 L 8850.7506,171568.94 L 8886.1675,171107.24 L 8496.5816,170964.87 L 8496.5816,170858.09 L 8744.4999,170325.2 L 8850.7506,169899.09 L 8779.9168,169367.22 L 9239.3246,168975.69 L 8955.9894,168408.22 L 9486.231,168052.29 L 9592.4817,166773.97 L 9874.805,166276.67 L 9910.2219,166205.48 L 9803.9712,165957.35 L 10158.14,165247.51 L 9521.6479,164465.46 L 10158.14,164074.95 L 10158.14,163826.81 L 10193.557,163222.73 L 10546.714,163293.92 L 10864.455,163009.17 L 10935.288,163009.17 L 11995.772,163329.52 L 12384.346,163009.17 L 12666.669,163115.95 L 12595.835,162796.63 L 13055.243,162406.11 L 13055.243,162370.52 L 12879.17,161837.63 L 13409.412,160771.85 L 13550.068,160701.68 L 14928.291,159919.64 L 15034.542,159848.45 L 15529.366,159493.53 L 15988.774,159848.45 L 16235.68,159848.45 L 16554.433,159671.5 L 17083.662,159955.23 L 17119.079,159955.23 L 18037.895,158676.91 L 18992.127,159352.18 L 20299.517,158427.76 L 20334.934,158357.59 L 20547.435,157931.48 L 20582.852,157860.29 L 21006.843,157682.32 L 22455.9,156332.81 L 22879.891,156546.38 L 24505.021,155835.52 L 25883.244,156581.97 L 26590.57,156297.22 L 26590.57,156261.63 L 26484.319,156013.49 L 27332.301,155161.27 L 28215.7,154876.52 L 29134.516,153917.53 L 29876.247,153527.02 L 30548.156,153527.02 L 30865.896,153882.95 L 31077.385,154237.87 L 30759.645,154947.71 L 31077.385,155054.49 L 31042.98,155516.19 L 31396.138,155658.57 L 31678.461,156297.22 L 32774.361,155835.52 L 33198.352,155587.38 L 33657.76,155302.63 L 34364.074,154202.28 L 34682.826,153882.95 L 35247.473,153669.39 L 35919.382,153669.39 L 35990.216,154095.5 L 36625.696,153953.12 L 36944.448,154343.64 L 37827.847,154343.64 L 40972.867,152923.96 L 41361.441,153100.91 L 41219.774,153704.98 L 41255.191,153669.39 L 41361.441,153455.83 L 41572.931,153065.32 L 42951.154,152177.51 L 43587.647,152248.69 L 43834.553,152781.58 L 44612.713,152426.66 L 44717.952,152355.48 L 45283.61,150579.86 L 46308.676,150401.89 L 46450.344,150224.94 L 46591,149833.41 L 46555.583,149727.64 L 46520.166,149337.13 L 46167.009,149514.08 L 45602.362,149301.54 L 45778.435,148875.43 L 45531.528,148697.46 L 45531.528,147951.01 L 45989.924,147169.98 L 46768.084,147028.63 L 46555.583,146566.93 L 47509.815,145465.56 L 49206.791,145358.78 L 49418.28,144826.9 L 49206.791,144755.72 L 49065.123,144187.23 L 49524.531,144116.05 L 50301.679,143973.67 L 50761.087,143583.16 L 51007.993,143192.65 L 50867.337,142552.98 L 51362.162,142233.65 L 51573.652,141736.36 L 51891.392,141488.22 L 51538.235,140919.73 L 51043.41,140031.93 L 49948.522,139286.49 L 49948.522,139250.9 L 50372.513,138540.04 L 49913.105,138042.75 L 49418.28,138078.34 L 49065.123,137794.61 L 49029.706,136977.99 L 48994.289,136977.99 L 48781.788,136942.4 L 48605.715,136906.8 L 48075.474,137154.94 L 47545.232,136195.95 L 47156.658,136516.29 L 46167.009,136373.91 L 45778.435,136764.43 L 44612.713,135947.81 L 43834.553,136195.95 L 43658.48,136587.48 L 43021.988,136054.59 L 42986.571,135769.84 L 42315.674,135805.43 L 41891.683,135557.29 L 41537.514,135664.07 L 40972.867,135060 L 40054.052,135236.95 L 39841.55,135060 L 39559.227,135202.37 L 39665.478,135698.65 L 39417.56,135557.29 L 39311.309,135841.03 L 39452.976,136551.88 L 38993.569,136906.8 L 38675.828,136728.83 L 38640.412,135379.32 L 38321.659,135450.51 L 38074.753,135166.78 L 38746.662,134562.7 L 38498.744,134350.16 L 38003.919,134455.92 L 37155.937,133994.22 L 36661.113,133994.22 L 36414.206,134562.7 L 35495.391,135060 L 35777.714,135308.14 L 35848.548,135912.21 L 36201.705,136090.18 L 35777.714,136409.51 L 35636.047,136445.1 L 35000.566,136018.99 L 34117.167,135769.84 L 33304.603,136195.95 L 33021.267,136622.05 L 32526.443,136551.88 L 31855.545,137013.58 L 30972.147,136800.02 L 30618.99,136195.95 L 30335.654,136338.32 L 30300.237,136409.51 L 30477.322,136693.24 L 29205.349,138468.86 L 28957.431,138824.79 L 28533.44,138042.75 L 27438.552,138078.34 L 27226.051,138256.31 L 27438.552,138718.01 L 27190.634,138575.64 L 27048.966,138185.12 L 27791.709,137297.32 L 27332.301,137013.58 L 27084.383,137119.35 L 26271.818,136338.32 L 25353.002,136693.24 L 24682.105,136018.99 L 23974.779,137723.42 L 23479.954,137510.88 L 23091.38,136622.05 L 22773.64,136445.1 L 22596.556,136906.8 L 22243.399,137083.75 L 21430.834,136302.73 L 20723.508,136551.88 L 20547.435,136516.29 L 19910.943,136054.59 L 19804.692,134775.25 L 20123.444,134278.97 L 20158.861,132964.04 L 19770.287,132503.36 L 19593.203,132822.68 L 18851.472,132360.98 L 17861.822,133106.41 L 17790.988,133106.41 L 17897.239,131934.87 L 18214.979,131579.95 L 18285.813,131508.77 L 17613.904,130585.36 L 17473.248,130514.18 L 17083.662,130300.62 L 16588.838,130016.88 L 16235.68,129519.59 L 15281.448,129733.15 L 15635.617,128738.56 L 15493.949,128241.27 L 14963.708,128170.08 L 14752.218,127601.6 L 14823.052,126891.76 L 15069.958,126536.84 L 15034.542,126252.09 L 14999.125,126180.9 L 14328.227,124440.88 L 13656.318,123411.71 L 12666.669,122629.67 L 11677.019,122665.26 L 11076.956,122167.97 L 9097.657,121955.42 L 9450.8141,121137.79 L 10122.723,120641.51 L 10546.714,120711.68 L 11006.122,120321.16 L 11288.445,120427.95 L 12207.261,119859.46 L 13373.995,119859.46 L 14257.394,118830.3 L 14716.801,118687.92 L 15953.357,119646.92 L 16872.173,119433.36 L 17720.155,119718.11 L 18532.719,119646.92 L 18921.293,120108.62 L 19027.544,119753.7 L 19875.526,119078.44 L 20088.027,118261.82 L 21042.26,117693.33 L 21182.915,116983.49 L 21783.991,116698.75 L 22879.891,116201.45 L 23727.873,115953.31 L 24151.864,116379.42 L 24788.356,116131.28 L 25282.169,116734.34 L 26484.319,116094.67 L 26660.392,116663.15 L 27332.301,116591.96 L 27508.374,116131.28 L 28356.356,115562.8 L 28604.274,115065.5 L 29629.34,114639.4 L 29876.247,114461.43 L 31643.044,112934.97 L 32067.035,113005.14 L 31926.379,112614.62 L 32208.702,112295.3 L 31997.213,112011.57 L 32385.787,111336.3 L 33021.267,111229.52 L 33162.935,111407.49 L 33445.258,111158.33 L 33586.926,111407.49 L 33869.249,111016.98 L 33904.666,110981.38 L 33975.5,110945.79 L 34541.158,111229.52 L 35176.639,111123.76 L 36449.623,111478.68 L 36696.53,112152.92 L 36944.448,112437.67 L 37155.937,112081.74 L 37615.345,112117.33 L 37721.596,111691.22 L 38711.245,111052.57 L 39276.904,111371.9 L 40018.635,111088.16 L 40265.541,111443.08 L 41078.106,111158.33 L 41255.191,111620.04 L 41750.015,111158.33 L 42597.997,111088.16 L 43269.906,110341.71 L 43410.562,110662.06 L 43729.314,110377.31 L 44293.961,110341.71 L 44788.785,110448.5 L 44859.619,110697.65 L 45036.704,110448.5 L 45354.444,112152.92 L 45955.519,111584.44 L 46237.843,112047.16 L 46732.667,111762.41 L 46979.574,111975.97 L 47722.317,111478.68 L 47722.317,111052.57 L 48428.631,110555.28 L 48746.371,110910.2 L 49065.123,110732.23 L 49206.791,110945.79 L 50019.356,110164.76 L 50584.002,109631.87 L 50619.419,109241.36 L 51078.827,109418.31 L 51502.818,109205.77 L 51502.818,109560.69 L 51679.902,109560.69 L 52033.059,109063.39 L 52386.216,109170.17 L 52669.552,108211.18 L 53199.793,108708.47 L 53694.618,107963.04 L 54118.609,108104.4 L 54188.431,107891.85 L 54507.183,107891.85 L 54259.265,107287.78 L 54507.183,106932.86 L 54400.932,106399.97 L 54648.85,106328.78 L 54754.089,106542.34 L 55602.071,106151.83 L 55602.071,105654.54 L 55920.823,105334.19 L 56556.304,105512.16 L 56768.805,106080.64 L 56944.878,105512.16 L 57439.702,105476.57 L 57723.037,104731.13 L 58147.028,104553.17 L 59807.575,104410.79 L 59984.659,103984.68 L 60938.892,103772.14 L 62175.448,104553.17 L 62670.272,104091.46 L 62952.596,104269.43 L 63305.753,103665.36 L 64013.079,103629.76 L 63906.828,103417.22 L 65002.728,102990.09 L 65107.967,102990.09 L 65602.792,103061.28 L 66415.357,102387.04 L 69278.054,101428.04 L 69595.794,101108.72 L 70409.371,101073.12 L 70444.788,100149.72 L 71009.435,100362.27 L 71044.851,100078.54 L 71610.51,100042.94 L 71928.25,99759.209 L 72847.066,100007.35 L 73907.549,99474.46 L 74613.863,99119.54 L 75002.437,99083.946 L 74861.781,98905.978 L 75037.854,98835.807 L 75709.763,98835.807 L 77229.654,97698.844 L 77794.301,97770.031 L 77971.385,97450.705 L 78113.053,98160.544 L 78607.878,98444.277 L 78324.542,98729.026 L 79278.775,99261.915 L 79243.358,99581.241 L 79596.515,99723.615 L 79702.766,99759.209 L 80091.34,99829.379 L 81010.155,98729.026 L 81682.064,98764.62 L 81751.886,98444.277 L 82317.545,98515.464 L 82847.786,98018.17 L 83519.696,98053.763 L 83979.103,99226.321 L 84084.342,99332.085 L 84367.677,99119.54 L 84403.094,99048.352 L 84614.584,98267.325 L 85215.659,98196.138 L 85462.566,97734.437 L 85992.807,97663.25 L 86416.798,97841.218 L 87053.29,98408.683 L 87548.115,98338.513 L 87654.366,98905.978 L 87865.855,98871.401 L 88112.762,98800.214 L 88183.595,98053.763 L 88678.42,98089.357 L 88961.755,97165.955 L 89208.662,97237.143 L 89456.58,96989.004 L 89845.154,96668.661 L 89951.405,97982.576 L 90586.885,98515.464 L 90940.042,98515.464 L 90940.042,98586.652 L 91117.127,99226.321 L 91399.45,99226.321 L 91823.441,98800.214 L 93838.157,98089.357 L 94226.731,97343.924 L 94615.305,97165.955 L 95145.546,97698.844 L 95039.295,98267.325 L 96028.945,98196.138 L 96206.029,98196.138 L 97124.845,97912.406 L 98008.244,98124.951 L 99668.79,97201.549 L 100269.87,96846.629 L 100869.93,96775.442 L 102920.06,95319.152 L 104192.03,94395.75 L 104369.12,93757.098 L 105287.93,93543.536 L 105605.67,93188.616 L 105641.09,93224.21 L 105676.51,93224.21 L 106135.92,93685.911 L 106700.56,93721.504 L 107301.64,93402.178 L 107407.89,93402.178 L 107619.38,94076.424 L 108679.86,94325.58 L 110022.67,93721.504 L 110764.4,93828.285 L 111223.81,93543.536 L 111718.63,93792.692 L 112248.87,93436.755 L 112920.78,93863.879 L 112920.78,94573.719 L 113096.85,94644.906 L 113485.43,94928.638 L 113839.6,95177.794 L 114439.66,95106.607 L 115146.99,94751.687 L 115005.32,95461.527 L 115182.4,95603.901 L 117337.77,94538.125 L 117655.52,94573.719 L 117761.77,94964.232 L 118292.01,95248.981 L 118786.83,95177.794 L 119033.74,95354.746 L 119881.72,95071.013 L 119952.55,95461.527 L 120058.8,96171.366 L 120058.8,96278.147 L 119670.23,97165.955 L 118609.75,98053.763 L 118362.84,98515.464 L 118962.9,100114.13 L 119528.56,100788.37 L 120129.64,100433.46 L 120447.38,99438.866 L 121472.44,98941.571 L 122638.17,99226.321 L 123379.9,98941.571 L 123627.82,99616.834 L 125041.46,98835.807 L 126348.85,97663.25 L 126384.26,97237.143 L 125960.27,96739.848 L 125995.69,96313.741 L 125995.69,96242.554 L 126843.67,95816.446 L 128221.89,95283.558 L 128292.73,95319.152 L 128963.63,95497.12 L 130765.84,94005.237 L 131189.83,94005.237 L 131225.25,94005.237 L 132038.82,93366.584 L 134547.35,92265.214 L 136278.73,90596.379 L 136278.73,90063.491 L 138682.02,89246.87 L 142286.45,87968.549 L 143876.16,87257.692 L 144654.32,86867.179 L 147056.6,85553.263 L 149742.21,84274.942 L 150378.71,83990.192 L 151827.76,83421.711 L 153559.14,82854.246 L 154371.71,82356.951 L 154584.21,82569.496 L 155113.44,82463.732 L 156209.34,81930.844 L 156103.09,81326.768 L 159248.11,79941.666 L 163913.02,77704.349 L 164125.52,77561.974 L 168718.59,75750.764 L 169284.25,75253.47 L 169672.82,74934.144 L 171015.63,74472.443 L 172393.85,74757.192 L 173949.16,74010.742 L 174266.9,73584.635 L 176917.1,72484.282 L 176599.36,72484.282 L 176952.51,72057.157 L 176599.36,71702.238 L 176599.36,71631.05 L 176917.1,71099.179 L 176670.19,70140.184 L 176386.85,69819.84 L 175857.63,70104.59 L 175609.71,69500.514 L 175857.63,69358.14 L 175362.8,68896.439 L 174620.06,68257.786 L 174125.23,68541.519 L 173665.82,68257.786 L 173383.5,68648.3 L 173101.18,68364.568 L 172641.77,68719.487 L 172217.78,68719.487 L 172040.7,68648.3 L 171899.03,68293.38 L 171616.7,67405.572 L 171086.46,67689.305 L 170449.97,67618.117 L 170415.57,67582.524 L 170167.65,67120.823 L 171051.05,66161.827 L 170839.56,65842.501 L 170449.97,66020.47 L 170309.31,65878.095 L 170203.06,65701.143 L 170238.48,65594.362 L 171228.13,63747.559 L 171687.54,63072.296 L 173030.34,62148.894 L 172924.09,61616.006 L 172677.19,61474.648 L 173984.58,60906.166 L 174054.4,60870.573 L 174054.4,60515.653 L 174549.22,59982.765 L 174337.73,59272.925 L 174938.81,58881.395 L 175645.12,59130.55 L 175786.79,58952.582 L 175857.63,58811.224 L 176493.11,57426.122 L 177376.5,56893.233 L 177835.91,56679.671 L 177871.33,56395.939 L 176634.77,55401.35 L 176810.85,54904.055 L 175221.13,54265.403 L 175786.79,53306.408 L 175680.54,53021.658 L 176104.53,52524.364 L 175998.28,52311.818 L 176352.45,52028.086 L 176139.95,50748.747 L 176881.68,50003.314 L 177341.09,50713.154 L 178295.32,50393.828 L 178754.73,50110.095 L 178825.56,49470.426 L 178048.41,49257.881 L 177871.33,49008.725 L 178648.48,48404.649 L 178577.64,48049.73 L 179391.22,47588.029 L 179178.72,46700.221 L 179391.22,46487.676 L 178967.23,45954.787 L 179744.38,45528.68 L 179426.64,44889.011 L 178931.81,44640.872 L 178825.56,44179.171 L 179391.22,43432.721 L 179426.64,41692.699 L 179567.29,41444.56 L 179815.21,41195.404 L 179921.46,41089.64 L 180521.52,40840.484 L 181087.18,40095.051 L 181759.09,39490.975 L 182041.42,39242.837 L 181688.26,38496.386 L 182076.83,37822.14 L 181899.75,37396.033 L 181511.17,37537.391 L 181158.02,37218.065 L 181228.85,36365.85 L 181652.84,35797.369 L 180804.86,34092.94 L 181369.51,33773.614 L 181440.34,33347.506 L 181723.68,33098.351 L 181617.42,32814.618 L 181970.58,31926.81 L 182713.33,31429.516 L 182960.23,30861.034 L 183277.97,30541.708 L 183277.97,29547.119 L 183701.96,28623.717 L 185292.69,28730.498 L 185397.93,28481.342 L 185575.01,28090.829 L 185752.1,27167.427 L 186600.08,26776.913 L 186600.08,26705.726 L 186635.49,26528.775 L 186635.49,26315.213 L 187872.05,24894.516 L 187765.8,24646.377 L 188013.72,24184.677 L 187872.05,23828.74 L 188366.87,24006.708 L 189250.27,23899.927 L 189250.27,23794.163 L 189144.02,23509.414 L 188932.53,22977.542 L 187765.8,22373.467 L 187341.81,22409.061 L 186917.82,22053.124 L 186811.57,21521.252 L 186211.5,21591.423 L 185221.85,20845.99 L 185221.85,20419.882 L 184620.78,19958.182 L 184549.94,19532.074 L 185397.93,18537.485 L 186282.34,18182.565 L 186493.83,18466.298 L 186917.82,18430.704 L 186953.23,17792.052 L 187341.81,17614.084 L 188366.87,16797.463 L 188790.87,16975.431 L 190204.51,16939.838 L 191511.89,16584.918 L 192006.72,16157.794 L 192713.03,16193.387 L 192996.37,16016.436 L 194232.92,16478.137 L 194621.5,16087.623 L 196105.97,16726.275 L 195893.47,15802.874 L 196352.88,15341.173 L 196706.04,15412.36 L 196918.54,14666.927 L 196706.04,14169.632 L 196847.7,13672.338 L 197165.44,12961.481 L 197837.35,12358.423 L 197555.03,11718.753 L 197872.77,11185.865 L 198791.59,10937.726 L 199038.49,10476.026 L 199180.16,10262.463 L 199428.08,9765.1688 L 198827,9090.9228 L 199462.48,7137.3384 L 199286.41,6675.6375 L 200098.98,6534.2798 L 200735.47,6818.0122 L 201088.62,6746.8249 L 201370.95,6285.124 L 202112.68,5965.7979 L 202537.68,5504.097 L 202537.68,5184.7709 L 202890.84,4935.6151 L 202820.01,4651.8826 L 202926.26,4616.289 L 202997.09,4687.4763 L 204198.23,4473.9142 L 204586.8,5254.9413 L 205294.13,5716.6421 L 206071.28,6213.9367 L 205858.78,6782.4185 L 206635.92,7101.7447 L 207272.42,6853.6059 L 206848.42,7422.0878 L 207660.99,7422.0878 L 208120.4,6960.3869 L 209356.95,7030.5573 L 209887.19,7172.932 L 210135.11,7527.8519 L 210665.35,7563.4456 L 211018.51,8309.8958 L 211195.6,8096.3338 L 211230,8060.7401 L 211655,8345.4895 L 211513.34,8877.3608 L 211760.24,9019.7355 L 211655,9197.7039 L 211901.91,9659.4047 L 211336.25,10830.945 L 211689.41,11754.347 L 211584.17,12251.642 L 212432.15,12038.08 L 212572.81,11683.16 L 213527.04,12144.861 L 213103.05,12429.61 L 212572.81,13672.338 L 212679.06,13991.664 L 213067.63,13991.664 L 212820.73,15838.467 L 211972.74,16122.2 L 211901.91,16335.762 L 212114.41,17330.351 L 213173.88,18111.378 L 213280.13,19638.855 L 213562.46,19993.775 L 213633.29,20597.851 L 213633.29,20739.209 L 213280.13,20774.802 L 212891.56,21555.829 L 212856.14,22159.905 L 213315.55,22550.418 L 213280.13,22977.542 L 212785.31,23154.494 L 212679.06,23509.414 L 212926.98,24504.003 L 213244.72,24717.565 L 212996.8,25285.03 L 212749.89,25391.811 L 212432.15,24965.704 L 212361.32,25214.859 L 212219.65,26067.074 L 212255.07,26137.244 L 212538.4,26172.838 L 212820.73,26244.025 L 212926.98,26634.539 L 212043.58,28410.155 L 212043.58,28445.748 L 212008.16,28694.904 L 212432.15,28978.637 L 212785.31,28800.668 L 213209.3,28907.449 L 213845.79,29014.23 L 214021.86,29297.963 L 213173.88,29689.493 L 213173.88,30221.365 L 214057.28,30434.927 L 213986.45,30008.819 L 214729.19,29653.9 L 214834.43,29653.9 L 215117.76,30080.007 L 215541.76,30008.819 L 215824.08,30363.739 L 215824.08,30896.627 L 216212.65,30434.927 L 216813.73,30292.552 L 216672.06,30861.034 L 217414.8,31180.36 L 217379.39,31571.89 L 217874.21,31713.248 L 218369.04,31820.029 L 219039.93,31677.654 L 220065,32494.275 L 220453.57,32424.105 L 221760.96,31997.998 L 222114.12,33205.132 L 222114.12,33240.725 L 222149.54,33276.319 L 222892.28,33595.645 L 222927.7,34199.721 L 223210.02,34412.266 L 223704.85,33738.02 L 223775.68,33773.614 L 224340.33,34447.86 L 225507.06,34235.315 L 226390.46,34731.592 L 226425.88,34731.592 L 226708.2,34021.752 L 226956.12,33950.565 L 227096.77,33950.565 L 227662.43,34625.828 L 228334.34,34270.908 L 228687.5,34519.047 L 228934.4,34412.266 L 228898.99,35228.887 L 229535.48,35797.369 L 229641.73,35904.15 L 230595.96,36259.069 L 230984.54,36685.177 L 231797.1,36827.551 L 232998.24,35654.994 L 233281.58,35797.369 L 233457.65,35620.417 L 233705.57,35868.556 L 233952.47,35584.823 L 234659.8,35832.962 L 235048.37,35726.181 L 235330.7,35690.587 L 235401.53,35406.855 L 235648.44,35371.261 L 235860.94,35868.556 L 235931.77,35904.15 L 236567.25,35868.556 L 238369.47,36330.257 L 238475.72,36437.038 L 239041.38,37005.52 L 239041.38,36613.989 L 239642.45,36649.583 L 239607.03,37218.065 L 239995.61,37040.096 L 240949.84,38141.466 L 241480.08,38105.873 L 241691.57,38390.622 L 241833.24,38177.06 L 242257.23,38531.98 L 242363.48,38283.841 L 242610.39,38319.435 L 242574.97,38070.279 L 243034.38,38034.685 L 243246.88,38283.841 L 243564.62,37501.797 L 244625.1,37182.471 L 245049.09,37537.391 L 245473.08,37537.391 L 245542.91,37857.734 L 245755.41,37608.578 L 245719.99,37857.734 L 246003.33,37822.14 L 245932.49,38034.685 L 246567.97,38248.248 L 247027.38,38816.729 L 247098.21,38531.98 L 247381.55,38816.729 L 247770.12,38852.323 L 247839.95,38638.761 L 247946.2,39136.056 L 248158.7,38781.136 L 248441.02,38852.323 L 248264.95,38638.761 L 248476.44,38248.248 L 248618.1,38531.98 L 248829.59,38460.793 L 248618.1,38674.355 L 249042.1,38603.167 L 248900.43,38886.9 L 249748.41,38745.542 L 249925.49,38958.087 L 250102.58,38603.167 L 250278.65,38886.9 L 250243.23,38531.98 L 251197.47,38425.199 L 251479.79,37679.766 L 251727.71,37572.985 L 252681.94,37857.734 L 253671.59,37075.69 L 253776.83,37253.658 L 254448.74,37005.52 L 254554.99,37218.065 L 255190.47,37253.658 L 255720.71,37857.734 L 255897.8,37715.359 L 256886.43,38390.622 L 257840.67,39597.756 L 258901.15,38993.681 L 259749.13,39313.007 L 260137.7,39384.194 L 260667.95,40414.377 L 260738.78,41621.511 L 260880.45,41799.48 L 261515.93,41906.261 L 262010.75,41480.154 L 262117,41906.261 L 261939.92,42012.025 L 262152.42,42047.618 L 262434.74,42403.555 L 262823.32,42509.319 L 262894.15,42829.662 L 263353.56,43077.801 L 263424.39,43113.395 L 263177.49,44143.578 L 262894.15,45990.381 L 263177.49,47233.109 L 262858.73,47375.484 L 261693.01,49541.613 L 261375.27,49399.239 L 260738.78,49896.533 L 260102.29,51424.01 L 259007.4,53235.22 L 258088.58,54371.167 L 257416.67,54797.274 L 256321.79,56253.564 L 255685.29,58242.742 L 255862.38,60337.685 L 256816.61,63285.858 L 257381.26,64031.291 L 258477.16,64635.367 L 259218.89,64635.367 L 259678.3,64919.099 L 259607.46,64670.961 L 259890.8,65167.238 L 258971.98,70068.996 L 258830.32,72981.576 L 259961.63,78449.782 L 261870.1,86902.772 L 262258.67,89175.683 L 262223.25,90844.518 L 261551.35,92939.46 L 261021.1,93650.317 L 259926.22,94538.125 L 257381.26,95923.227 L 255225.89,97165.955 L 251903.78,99438.866 L 250136.98,100823.97 L 247133.63,102387.04 L 244554.27,103451.79 L 241090.5,104517.57 L 232468,106932.86 L 228652.08,108104.4 L 225012.23,109596.28 L 222502.69,110662.06 L 220630.66,111549.87 L 219393.09,112081.74 L 215082.35,114425.83 L 214693.77,114674.99 L 211655,117302.82 L 210983.09,117657.74 L 209922.61,118368.6 L 209498.62,119007.25 L 209427.79,119718.11 L 209922.61,119930.65 L 209675.71,120463.54 L 209887.19,120782.87 L 208544.39,121493.72 L 208368.32,121564.91 L 206566.1,122772.04 L 204975.38,124121.55 L 204304.48,124902.58 L 203880.49,125790.39 L 203632.57,127104.3 L 203208.58,127175.49 L 202537.68,127886.35 L 201724.11,127815.16 L 201159.46,128348.05 L 199992.72,129945.7 L 199816.65,130656.55 L 198967.66,131437.58 L 198649.92,131401.99 L 198261.34,130762.32 L 197342.53,131047.07 L 196565.38,131828.09 L 195893.47,133213.2 L 195257.99,135805.43 L 195010.07,135734.24 L 194656.92,136516.29 L 194727.75,139818.36 L 194692.33,140281.08 L 194727.75,140777.36 L 195504.9,144294.02 L 196247.64,145217.42 L 197484.2,145358.78 L 197342.53,145714.71 L 198261.34,147241.17 L 199073.91,147916.44 L 199886.47,148128.98 L 200311.48,147951.01 L 200487.55,147524.9 L 200311.48,147028.63 L 200805.29,146993.03 L 201088.62,146672.69 L 201901.19,146921.85 L 202289.76,146602.52 L 202325.18,145927.26 L 202784.59,146069.63 L 202890.84,145749.29 L 203244,146069.63 L 202820.01,146743.88 L 203526.32,146957.44 L 203385.66,147490.33 L 203066.91,147419.14 L 202820.01,147774.06 L 202678.34,147419.14 L 202502.27,148448.31 L 202112.68,147951.01 L 201865.77,148093.39 L 202325.18,149087.98 L 202112.68,149123.57 L 201936.61,148626.27 L 201335.53,149230.35 L 201124.04,148839.84 L 200805.29,149016.79 L 200700.05,148697.46 L 200381.3,148697.46 L 199604.15,149230.35 L 199038.49,150011.38 L 198967.66,150508.67 L 199321.83,150792.4 L 199144.74,151182.92 L 198403.01,150863.59 L 198155.09,151147.32 L 196529.96,151751.4 L 195434.06,153669.39 L 195469.48,154663.98 L 195681.98,154947.71 L 195928.89,154840.93 L 195611.15,155125.68 L 195787.22,155409.41 L 195116.32,156084.68 L 194586.08,156261.63 L 194410.01,156616.55 L 194197.51,156297.22 L 193738.1,156226.03 L 192960.95,156901.3 L 192501.54,157682.32 L 192148.39,159103.02 L 192183.8,159813.88 L 192430.71,160701.68 L 193137.02,160701.68 L 192854.7,161375.93 L 193137.02,161766.44 L 193596.43,161304.74 L 194339.18,160949.82 L 194479.83,161056.6 L 194055.84,161304.74 L 193950.6,161659.66 L 194126.67,161837.63 L 194339.18,161624.07 L 194763.17,161695.26 L 194339.18,162370.52 L 193667.27,161980.01 L 193491.19,162192.55 L 193738.1,162441.71 L 193278.69,162477.3 L 193278.69,163044.77 L 193844.35,163009.17 L 194020.42,163329.52 L 193702.68,163684.43 L 193667.27,164359.7 L 193349.53,163542.06 L 192253.63,163009.17 L 192289.04,162441.71 L 191723.38,162015.6 L 189498.19,161340.34 L 175327.38,160204.39 L 170309.31,159919.64 L 166492.38,159884.05 L 162852.54,160026.42 L 161969.14,160097.61 L 160838.84,159813.88 L 155891.6,159778.28 L 152534.08,160062.02 L 150096.38,160523.72 L 149459.89,160843.04 L 149282.81,161589.49 L 148858.82,161837.63 L 148505.66,161518.31 L 147409.76,161375.93 L 140766.56,161837.63 L 136738.14,162121.36 L 133910.86,162725.44 L 131331.5,162441.71 L 128892.79,162334.93 L 127762.49,162512.89 L 127585.4,162725.44 L 127585.4,162867.81 L 126985.34,162761.03 L 126737.42,163151.55 L 126348.85,162796.63 L 125818.6,162832.22 L 125112.29,163293.92 L 125183.12,162903.41 L 125465.45,162583.06 L 124970.62,161908.82 L 123062.16,161340.34 L 121189.11,161233.56 L 120906.79,160701.68 L 120589.05,160666.09 L 120765.12,160097.61 L 119563.98,160133.2 L 120165.06,159884.05 L 120305.71,159067.43 L 120482.8,159031.83 L 120835.95,159600.31 L 121083.87,159493.53 L 120977.62,159742.69 L 121366.19,160097.61 L 121790.19,159919.64 L 122249.59,159245.39 L 122214.18,158534.54 L 121189.11,158534.54 L 120800.54,157753.51 L 120305.71,157824.7 L 119846.3,158215.21 L 119457.73,157611.14 L 120305.71,156830.11 L 120165.06,156332.81 L 119599.4,156155.86 L 119917.14,155728.74 L 120447.38,155799.93 L 120553.63,156155.86 L 120942.2,156013.49 L 121119.29,155090.09 L 121719.35,154309.06 L 122355.84,153100.91 L 122107.93,152674.8 L 122214.18,152177.51 L 123203.83,151574.45 L 124158.06,150401.89 L 123310.08,150153.75 L 123168.41,149265.94 L 123910.14,148733.06 L 124016.39,147987.62 L 124404.96,147631.69 L 126595.75,146424.55 L 126772.84,146069.63 L 126490.51,145429.96 L 126702,144826.9 L 126242.6,144222.83 L 126171.76,143761.13 L 126419.68,143440.78 L 126772.84,143440.78 L 126171.76,142944.51 L 126419.68,142517.38 L 125995.69,142233.65 L 125889.44,142447.21 L 125607.12,141985.51 L 125183.12,142304.84 L 124899.79,141736.36 L 124794.55,141985.51 L 124193.47,142091.28 L 122850.67,141452.62 L 122426.68,141985.51 L 121648.52,142162.46 L 121401.61,142162.46 L 121472.44,142659.76 L 121330.78,142552.98 L 121013.04,142233.65 L 121119.29,142624.16 L 120835.95,142802.13 L 120800.54,143511.97 L 120129.64,144080.45 L 119670.23,144080.45 L 119139.99,143618.75 L 118503.5,143583.16 L 117690.93,143796.72 L 117549.26,144080.45 L 116525.21,144506.56 L 114299,145003.86 L 114510.49,145253.01 L 114263.59,145607.93 L 113520.84,145927.26 L 112956.2,145607.93 L 113132.27,145927.26 L 112708.28,145998.44 L 112390.54,146388.96 L 112496.79,146637.1 L 111824.88,147134.39 L 111436.31,147028.63 L 111754.05,147312.36 L 110588.33,148200.17 L 110659.16,148378.14 L 110164.33,148839.84 L 110235.17,149194.76 L 109492.43,150259.52 L 109527.84,150792.4 L 109845.58,151396.48 L 110446.66,151005.97 L 110340.41,151538.85 L 110870.65,151822.59 L 111648.81,152852.77 L 112425.96,153350.06 L 112743.7,154628.39 L 112496.79,155125.68 L 112814.53,155728.74 L 113309.36,155302.63 L 113627.1,155622.98 L 113804.18,155480.6 L 114157.34,155658.57 L 114723,155125.68 L 115253.24,155694.16 L 114581.33,156439.6 L 114758.41,156865.7 L 116030.39,156546.38 L 116665.87,156758.92 L 116525.21,157008.08 L 116736.7,156794.52 L 116701.28,157043.67 L 116984.62,156865.7 L 117479.44,157043.67 L 117160.69,157220.62 L 116842.95,157113.84 L 117373.19,157682.32 L 117832.6,157682.32 L 117903.43,158250.81 L 118150.34,158286.4 L 117938.85,158605.73 L 117373.19,158393.18 L 117125.27,158570.13 L 117266.94,158783.69 L 117373.19,158605.73 L 117514.86,158996.24 L 117266.94,159671.5 L 117444.03,160097.61 L 117055.45,160523.72 L 116665.87,160523.72 L 116630.45,160807.45 L 117302.36,161092.2 L 117832.6,160488.12 L 118538.91,160133.2 L 118256.59,160488.12 L 118609.75,160985.42 L 117690.93,161269.15 L 117974.27,161482.71 L 117938.85,161766.44 L 118044.09,161944.41 L 117444.03,161944.41 L 116418.96,162618.66 L 116206.46,163222.73 L 116560.63,163506.47 L 116171.04,163648.84 L 115924.13,163862.4 L 113909.42,163720.03 L 112425.96,164643.43 L 110340.41,164750.21 L 109563.26,165247.51 L 109634.09,165708.19 L 108962.18,165744.8 L 109103.85,165388.86 L 108609.03,165176.32 L 108326.7,164607.84 L 107337.05,164181.73 L 107159.97,163862.4 L 106453.66,163791.22 L 105888,163258.33 L 104474.36,162654.25 L 103697.21,162796.63 L 103237.8,162654.25 L 102496.07,163365.11 L 101859.58,162761.03 L 101717.91,163009.17 L 101894.99,163470.87 L 101717.91,163151.55 L 101117.85,163648.84 L 101293.92,163577.65 L 101293.92,163791.22 L 101612.67,163968.17 L 102742.98,163684.43 L 102884.64,164003.76 L 102636.73,164110.54 L 102849.23,164146.14 L 103060.72,163826.81 L 102920.06,163293.92 L 103379.47,162974.6 L 105217.1,163187.14 L 105781.75,163436.3 L 104933.76,163470.87 L 105428.59,163648.84 L 105641.09,163968.17 L 105322.34,164110.54 L 104898.35,163826.81 L 104757.69,164074.95 L 106311.99,164252.92 L 107159.97,164252.92 L 107266.22,164607.84 L 107867.3,164679.02 L 108008.96,164998.35 L 108997.6,165424.46 L 108326.7,165673.61 L 104862.93,165317.68 L 99244.799,166099.72 L 97760.325,166631.59 L 97478.002,166916.34 L 97584.253,167235.67 L 97230.084,166845.15 L 95922.694,167023.12 L 95074.712,167590.59 L 94968.462,167946.52 L 93130.83,168230.26 L 93061.009,168549.58 L 92247.432,168975.69 L 92035.942,169615.36 L 92247.432,169757.73 L 91965.108,170005.87 L 91894.275,169757.73 L 91258.794,169934.68 L 90763.97,169793.33 L 91010.876,169650.95 L 90975.459,169046.88 L 90409.801,168620.77 L 89244.079,168265.85 L 84403.094,168372.63 L 77158.82,168940.1 L 71821.999,169686.55 L 65426.719,170822.49 L 63412.004,171852.68 L 62775.511,171745.89 L 62634.856,171426.57 L 61927.529,171177.41 L 61962.946,170396.39 L 61680.623,170112.65 L 62069.197,169615.36 L 62528.605,169722.14 L 62952.596,169367.22 L 63094.263,168620.77 L 63553.671,168763.14 L 64224.568,167768.56 L 65496.541,167378.04 L 65886.127,168016.69 L 67016.432,168620.77 L 67864.414,168656.36 L 69171.803,169401.8 L 70090.619,169367.22 L 70550.027,168905.52 L 70585.444,167946.52 L 70373.954,167519.4 L 69525.972,166845.15 L 68607.157,166419.05 L 68288.405,165992.94 L 68642.574,166383.45 L 69666.628,166845.15 L 71468.842,167697.37 L 73872.132,168656.36 L 76133.754,168905.52 L 81540.397,168443.82 L 84508.333,167590.59 L 87972.106,166809.56 L 88537.764,167023.12 L 88713.837,167413.64 L 91010.876,168372.63 L 91081.71,169118.06 L 91752.607,168159.07 L 91576.535,167804.15 L 91293.199,167839.74 L 91293.199,168372.63 L 90763.97,168087.88 L 90233.728,167378.04 L 90269.145,167626.18 L 89703.486,167093.29 L 89880.571,167093.29 L 89279.496,166880.75 L 88926.338,166205.48 L 87830.438,165566.83 L 87230.375,165069.54 L 86310.547,164998.35 L 86028.224,164679.02 L 85391.732,164750.21 L 84650.001,163613.25 L 83802.019,163151.55 L 83165.527,163577.65 L 82989.454,163968.17 L 82600.88,163470.87 L 82246.711,163542.06 L 81434.146,162406.11 L 80939.321,162689.85 L 81045.572,162156.96 L 80410.092,161411.52 L 78113.053,159919.64 L 78113.053,159564.72 L 77829.718,159671.5 L 77229.654,159138.61 L 77334.893,158890.47 L 76734.829,159067.43 L 76062.92,158641.32 L 75356.606,158393.18 L 74649.28,158748.1 L 74720.114,158250.81 L 74225.289,158144.02 L 74437.791,158890.47 L 73554.392,159422.35 L 72953.316,159493.53 L 72811.649,159209.8 L 72281.407,159138.61 L 72387.658,158854.88 L 72140.752,158676.91 L 73341.89,158286.4 L 73554.392,157967.07 L 73306.474,157611.14 L 71999.084,157505.37 L 71044.851,157753.51 L 70444.788,158215.21 L 70126.036,158925.05 L 69525.972,158960.65 L 68430.072,159564.72 L 67087.266,159457.94 L 66415.357,159529.13 L 65744.459,159280.99 L 64825.644,159848.45 L 64013.079,159635.91 L 63234.919,159919.64 L 62846.345,160310.15 L 62493.188,160416.94 L 62281.698,160133.2 L 61716.04,160949.82 L 61008.714,161411.52 L 61044.131,161873.23 L 60513.889,161980.01 L 60231.566,163187.14 L 59419.001,163400.7 L 58817.926,163115.95 L 59736.741,161873.23 L 59525.252,161411.52 L 59913.826,160985.42 L 59454.418,160133.2 L 58358.518,160878.64 L 57581.37,161092.2 L 57121.962,161589.49 L 56980.294,161624.07 L 57228.213,161730.85 L 57157.379,162085.77 L 57545.953,162618.66 L 57121.962,163932.57 L 56132.313,164288.51 L 56132.313,164927.16 L 55037.424,166170.91 L 53270.627,166987.53 L 52669.552,167093.29 L 52421.633,167449.23 L 52174.727,166916.34 L 51538.235,166880.75 L 50867.337,167200.07 L 50902.754,167519.4 L 51185.078,167626.18 L 51078.827,167982.12 L 50690.253,168123.48 L 50478.763,167768.56 L 50337.096,168159.07 L 50337.096,168301.44 L 49700.604,168443.82 L 49630.782,168194.66 L 49771.437,167554.99 L 49312.03,167306.85 L 47298.326,168337.04 L 47156.658,168372.63 L 46838.918,168585.18 L 46414.927,168408.22 L 46273.26,168087.88 L 45989.924,168194.66 L 45955.519,168052.29 L 46414.927,167732.96 L 46944.157,166419.05 L 47898.389,165779.38 L 47828.567,165353.27 L 47298.326,165495.64 L 46484.749,164536.65 L 46097.187,164607.84 L 46131.592,164252.92 L 45283.61,165069.54 L 44895.036,164679.02 L 44400.211,164998.35 L 44082.471,165495.64 L 44153.305,165779.38 L 43729.314,165566.83 L 43445.979,165744.8 L 43339.728,166276.67 L 42810.499,166383.45 L 42315.674,166205.48 L 42845.915,165033.94 L 42420.913,164714.62 L 42209.423,165033.94 L 41608.348,165105.13 L 41643.765,165566.83 L 41396.858,165247.51 L 41219.774,165638.02 L 40866.617,165602.43 L 40937.451,166028.53 L 40584.293,165992.94 L 40300.958,166347.86 L 40018.635,166134.3 L 39382.143,166702.78 L 39382.143,166134.3 L 38887.318,166205.48 L 38852.913,165957.35 L 38569.578,165814.97 L 38746.662,165282.08 L 38569.578,165247.51 L 38958.152,165105.13 L 39099.819,164429.87 L 39736.312,163896.98 L 40831.2,164110.54 L 40795.783,163329.52 L 41148.94,163258.33 L 41326.025,163506.47 L 42067.756,163115.95 L 41891.683,162583.06 L 42315.674,161908.82 L 42597.997,161873.23 L 42739.665,161553.9 L 42562.58,161411.52 L 41856.266,161624.07 L 41467.692,161411.52 L 40760.366,161730.85 L 40584.293,162156.96 L 40336.375,161980.01 L 40265.541,161447.12 L 40831.2,161233.56 L 40513.46,161197.96 L 40513.46,160630.5 L 41219.774,160345.75 L 41396.858,160026.42 L 41008.284,159990.83 L 41184.357,159457.94 L 40866.617,159245.39 L 40937.451,159067.43 L 40584.293,159352.18 L 40089.469,158960.65 L 39559.227,158925.05 L 39206.07,159529.13 L 38816.484,158996.24 L 38463.327,159067.43 L 38711.245,159209.8 L 38321.659,159529.13 L 38746.662,159635.91 L 38003.919,160062.02 L 38110.17,160594.9 L 38287.254,160807.45 L 38498.744,160238.97 L 39417.56,160666.09 L 38816.484,161411.52 L 38569.578,161269.15 L 38321.659,161659.66 L 37933.085,161553.9 L 37827.847,162156.96 L 37579.928,162334.93 L 37403.856,162121.36 L 37191.354,162548.49 L 36979.865,162334.93 L 37544.511,161624.07 L 36625.696,160985.42 L 35636.047,161127.79 L 35318.306,160345.75 L 35212.056,160666.09 L 34611.992,160985.42 L 34611.992,161624.07 L 34364.074,161447.12 L 34399.491,161837.63 L 33904.666,161873.23 L 33728.593,162548.49 L 34081.751,162974.6 L 33799.427,163044.77 L 33799.427,163648.84 L 33409.841,163932.57 L 33586.926,164217.32 L 34152.584,164039.35 L 34470.325,164359.7 L 33586.926,164714.62 L 33056.684,165388.86 L 33445.258,165992.94 L 34081.751,165992.94 L 33127.518,166490.23 L 32632.693,165708.19 L 32137.869,165850.56 L 32244.119,165317.68 L 31961.796,164962.76 L 31607.627,164962.76 L 31537.805,165317.68 L 31042.98,164962.76 L 30583.573,165140.72 L 30193.987,165992.94 L 29134.516,166738.37 L 28781.358,166454.64 L 28215.7,166490.23 L 27543.791,166525.83 L 26165.567,167235.67 L 25530.087,167306.85 L 24999.845,167910.93 L 24505.021,167982.12 L 24363.353,168408.22 L 23833.112,168620.77 L 23974.779,168727.55 L 22949.713,169082.47 L 23515.371,168301.44 L 23479.954,168052.29 L 23126.797,167804.15 L 22349.649,168123.48 L 22137.148,167982.12 L 21961.075,168230.26 L 21996.492,167804.15 L 21713.157,167661.77 L 20370.351,168301.44 L 20334.934,168016.69 L 19910.943,167875.34 L 19557.786,168585.18 L 19169.212,168265.85 L 18851.472,168585.18 L 18427.481,168372.63 L 17755.571,169082.47 L 17861.822,169615.36 L 17402.414,169615.36 L 17083.662,170077.06 L 17225.33,170289.6 L 16907.59,170467.57 L 17119.079,171036.05 L 16765.922,171213.01 L 16554.433,171888.27 L 16377.348,173237.78 L 17083.662,173628.29 L 16836.756,173947.62 L 16377.348,173983.21 L 16377.348,174232.37 L 16412.765,174800.85 L 16765.922,175013.39 L 16377.348,175653.06 L 15953.357,175724.25 L 15847.106,176469.68 L 16377.348,176611.04 L 16412.765,177002.57 L 15635.617,177179.52 L 15493.949,177641.22 L 15176.209,177783.6 L 15316.865,177961.57 L 15847.106,177854.79 L 15316.865,178138.52 L 15387.699,178423.27 L 15105.375,178423.27 L 14892.874,178990.73 L 15387.699,179701.59 L 15600.2,179666 L 15776.273,180269.06 L 15458.532,180411.43 L 15671.034,180696.18 L 15493.949,181263.64 L 15953.357,181263.64 L 16271.097,181192.46 L 16624.254,181157.88 L 16943.007,180447.02 L 17331.581,180553.8 L 17897.239,180198.88 L 18073.312,179914.14 L 17790.988,179737.18 L 18179.562,179630.4 L 18356.647,179275.48 L 18532.719,179523.62 L 18709.804,179311.08 L 19027.544,179381.25 L 19522.369,177996.14 L 20052.61,177819.19 L 19981.777,178564.63 L 21147.499,178600.22 L 21147.499,179026.33 L 21854.825,179168.7 L 21113.094,179772.78 L 21289.166,180375.84 L 21042.26,180589.4 L 20723.508,180447.02 L 20653.686,180092.1 L 20194.278,180198.88 L 20476.601,179630.4 L 19522.369,180411.43 L 19416.118,180092.1 L 18745.221,179878.54 L 18992.127,180411.43 L 18674.387,180873.13 L 19098.378,180589.4 L 19275.462,180801.94 L 18497.303,181370.43 L 18108.729,181051.1 L 17720.155,181619.58 L 18108.729,181725.35 L 17790.988,181903.31 L 17473.248,181725.35 L 17331.581,181903.31 L 17684.738,182187.05 L 16801.339,182648.75 L 17684.738,182613.15 L 18321.23,182045.69 L 18321.23,182400.61 L 18709.804,182293.83 L 19027.544,181689.75 L 19522.369,181406.02 L 20405.767,181370.43 L 20689.103,181725.35 L 22030.897,181299.24 L 21289.166,182045.69 L 20158.861,184354.19 L 19133.795,185490.14 L 19240.046,185702.68 L 20299.517,186094.21 L 20017.193,185738.28 L 19875.526,185347.76 L 20158.861,185135.22 L 20405.767,185312.17 L 20829.758,184815.89 L 21537.084,183040.28 L 23126.797,182010.09 L 22985.13,181548.39 L 23126.797,181334.83 L 24575.855,181299.24 L 25530.087,180801.94 L 25494.67,181157.88 L 24469.604,182081.28 L 24540.438,182684.34 L 23939.362,183607.74 L 24258.114,183962.66 L 24505.021,183821.3 L 25600.921,184140.63 L 26131.162,183962.66 L 26271.818,184211.82 L 27048.966,183678.93 L 28286.534,184637.92 L 28180.283,184921.66 L 28498.023,185028.44 L 28675.108,185454.55 L 29169.932,185418.95 L 29310.588,185773.87 L 28851.18,186129.81 L 28604.274,185490.14 L 27579.208,185170.81 L 27155.217,185525.73 L 26802.06,186413.54 L 26695.809,186235.57 L 26131.162,186591.51 L 25776.993,186413.54 L 25176.93,187727.46 L 25423.836,188224.75 L 24045.613,190142.74 L 23479.954,190497.66 L 22949.713,190284.1 L 22561.139,190852.58 L 22420.483,190781.39 L 22455.9,189538.67 L 22030.897,189467.48 L 21713.157,189716.63 L 21642.323,189076.97 L 21324.583,188934.59 L 21006.843,189609.85 L 20653.686,189787.82 L 20971.426,188793.23 L 20229.695,188367.13 L 19734.87,188544.08 L 19451.535,189041.37 L 18816.055,188864.42 L 18956.71,189467.48 L 18144.145,189290.53 L 17897.239,188579.67 L 17508.665,188900.01 L 17508.665,189431.89 L 17154.496,189752.23 L 17154.496,189467.48 L 16164.847,188934.59 L 15105.375,189396.29 L 14823.052,189857.99 L 15034.542,189893.59 L 14892.874,190142.74 L 14504.3,189929.18 L 14221.977,190284.1 L 14716.801,190888.17 L 14080.309,190604.44 L 13479.234,190178.34 L 13020.838,190178.34 L 12348.929,189041.37 L 11147.79,188793.23 L 11253.029,188402.72 L 10899.871,187869.83 L 11006.122,187123.38 L 10511.297,186413.54 L 10546.714,185987.43 L 10546.714,185951.84 L 9345.5753,185276.58 L 9239.3246,184815.89 L 7967.3519,185347.76 L 8108.0076,184637.92 L 7896.5181,184531.14 L 7684.0167,183821.3 L 7048.5363,183395.2 L 7260.0258,182897.9 L 6129.7207,182329.42 L 4751.4974,182365.01 L 4538.996,181192.46 L 4079.5882,181157.88 L 3832.6818,180589.4 L 4327.5065,179985.32 L 4221.2558,179133.11 z M 14928.291,190249.52 L 14928.291,190213.93 L 14963.708,190178.34 L 15034.542,190142.74 L 15034.542,190107.15 L 15069.958,190142.74 L 15069.958,190213.93 L 15034.542,190249.52 L 14999.125,190284.1 L 14963.708,190284.1 L 14963.708,190249.52 L 14928.291,190249.52 z M 214905.26,121564.91 L 214940.68,121599.49 L 214976.1,121529.32 L 214976.1,121493.72 L 214940.68,121493.72 L 214869.85,121458.13 L 214869.85,121422.53 L 214834.43,121422.53 L 214869.85,121386.94 L 214905.26,121386.94 L 215011.51,121386.94 L 215046.93,121351.35 L 215082.35,121351.35 L 215153.18,121351.35 L 215224.02,121351.35 L 215258.42,121351.35 L 215293.84,121386.94 L 215293.84,121422.53 L 215258.42,121458.13 L 215188.6,121458.13 L 215188.6,121493.72 L 215224.02,121493.72 L 215224.02,121529.32 L 215224.02,121564.91 L 215188.6,121599.49 L 215188.6,121670.67 L 215188.6,121741.86 L 215153.18,121741.86 L 215082.35,121741.86 L 215046.93,121777.45 L 214976.1,121777.45 L 214940.68,121741.86 L 214940.68,121706.27 L 214905.26,121635.08 L 214869.85,121635.08 L 214869.85,121599.49 L 214905.26,121564.91 z M 213986.45,122345.94 L 213986.45,122132.37 L 214516.69,121813.05 L 214764.61,122132.37 L 214445.86,122310.34 L 214658.36,122807.64 L 214198.95,122772.04 L 213986.45,122345.94 z M 23126.797,169367.22 L 23091.38,169331.63 L 23091.38,169296.03 L 23126.797,169260.44 L 23197.631,169224.85 L 23233.048,169296.03 L 23233.048,169331.63 L 23162.214,169367.22 L 23126.797,169367.22 z M 17578.487,172314.38 L 17613.904,172278.78 L 17649.321,172314.38 L 17684.738,172349.97 L 17684.738,172385.56 L 17649.321,172421.16 L 17613.904,172421.16 L 17578.487,172385.56 L 17543.07,172349.97 L 17578.487,172314.38 z M 18073.312,190035.96 L 18108.729,190000.37 L 18108.729,189964.77 L 18179.562,189964.77 L 18179.562,190000.37 L 18144.145,190071.55 L 18144.145,190107.15 L 18108.729,190107.15 L 18073.312,190107.15 L 18073.312,190071.55 L 18073.312,190035.96 z M 26448.903,168087.88 L 26448.903,168052.29 L 26484.319,167982.12 L 26519.736,167910.93 L 26590.57,167910.93 L 26555.153,168016.69 L 26484.319,168087.88 L 26448.903,168087.88 z M 23903.945,179630.4 L 23939.362,179630.4 L 23974.779,179630.4 L 24081.03,179630.4 L 24081.03,179666 L 24081.03,179701.59 L 24010.196,179737.18 L 23974.779,179737.18 L 23939.362,179737.18 L 23903.945,179737.18 L 23903.945,179701.59 L 23903.945,179630.4 z M 22631.973,169367.22 L 22667.39,169331.63 L 22702.806,169331.63 L 22738.223,169331.63 L 22773.64,169401.8 L 22738.223,169472.98 L 22702.806,169508.58 L 22667.39,169437.39 L 22631.973,169437.39 L 22596.556,169437.39 L 22561.139,169401.8 L 22631.973,169367.22 z M 17649.321,173628.29 L 17613.904,173592.7 L 17613.904,173557.1 L 17755.571,173451.34 L 17790.988,173485.92 L 17790.988,173557.1 L 17755.571,173592.7 L 17720.155,173628.29 L 17684.738,173628.29 L 17649.321,173628.29 z M 17048.245,172349.97 L 17083.662,172243.19 L 17154.496,172243.19 L 17154.496,172207.6 L 17154.496,172172 L 17189.913,172136.41 L 17225.33,172136.41 L 17260.747,172172 L 17225.33,172207.6 L 17189.913,172278.78 L 17154.496,172314.38 L 17119.079,172349.97 L 17083.662,172385.56 L 17048.245,172385.56 L 17013.84,172349.97 L 17048.245,172349.97 z M 18214.979,181655.17 L 18250.396,181655.17 L 18285.813,181655.17 L 18392.064,181655.17 L 18392.064,181689.75 L 18392.064,181725.35 L 18356.647,181725.35 L 18250.396,181760.94 L 18214.979,181760.94 L 18179.562,181725.35 L 18179.562,181689.75 L 18214.979,181655.17 z M 17366.997,177250.71 L 17366.997,177215.12 L 17473.248,177215.12 L 17473.248,177286.3 L 17473.248,177321.9 L 17366.997,177393.09 L 17331.581,177357.49 L 17331.581,177321.9 L 17366.997,177250.71 z M 24788.356,183714.52 L 24788.356,183678.93 L 24822.761,183607.74 L 24858.178,183572.15 L 24964.428,183500.96 L 24999.845,183465.37 L 25035.262,183500.96 L 24999.845,183536.55 L 24964.428,183572.15 L 24858.178,183678.93 L 24822.761,183714.52 L 24788.356,183714.52 z M 23162.214,170893.68 L 23162.214,170822.49 L 23233.048,170751.31 L 23233.048,170715.71 L 23233.048,170645.54 L 23303.882,170715.71 L 23303.882,170751.31 L 23303.882,170822.49 L 23233.048,170893.68 L 23162.214,170929.27 L 23126.797,170964.87 L 23126.797,170929.27 L 23162.214,170893.68 z M 25353.002,168337.04 L 25388.419,168265.85 L 25423.836,168230.26 L 25494.67,168230.26 L 25530.087,168230.26 L 25565.504,168301.44 L 25530.087,168372.63 L 25494.67,168372.63 L 25388.419,168372.63 L 25353.002,168372.63 L 25317.586,168337.04 L 25353.002,168337.04 z M 18073.312,171639.11 L 18037.895,171568.94 L 18073.312,171568.94 L 18108.729,171533.35 L 18144.145,171497.76 L 18179.562,171497.76 L 18250.396,171497.76 L 18285.813,171462.16 L 18285.813,171426.57 L 18321.23,171462.16 L 18321.23,171497.76 L 18285.813,171533.35 L 18214.979,171603.52 L 18179.562,171603.52 L 18108.729,171639.11 L 18073.312,171639.11 z M 17119.079,173841.85 L 17189.913,173806.26 L 17260.747,173735.07 L 17296.164,173735.07 L 17331.581,173735.07 L 17331.581,173770.67 L 17331.581,173841.85 L 17296.164,173877.45 L 17260.747,173877.45 L 17225.33,173912.02 L 17189.913,173912.02 L 17119.079,173912.02 L 17119.079,173877.45 L 17083.662,173841.85 L 17119.079,173841.85 z M 21006.843,168869.93 L 21042.26,168869.93 L 21113.094,168905.52 L 21147.499,168905.52 L 21147.499,168940.1 L 21113.094,168975.69 L 21113.094,169011.28 L 21077.677,169046.88 L 21042.26,169046.88 L 20971.426,169046.88 L 20936.009,169046.88 L 20900.592,169011.28 L 21006.843,168869.93 z M 53340.449,167590.59 L 53340.449,167554.99 L 53375.866,167484.82 L 53517.533,167413.64 L 53517.533,167449.23 L 53517.533,167554.99 L 53517.533,167590.59 L 53517.533,167661.77 L 53446.7,167661.77 L 53411.283,167626.18 L 53375.866,167626.18 L 53340.449,167661.77 L 53340.449,167626.18 L 53340.449,167590.59 z M 25706.16,180482.62 L 25741.576,180375.84 L 25776.993,180375.84 L 25883.244,180340.24 L 25918.661,180304.65 L 25954.078,180340.24 L 25954.078,180375.84 L 25918.661,180411.43 L 25883.244,180447.02 L 25812.41,180518.21 L 25776.993,180589.4 L 25741.576,180589.4 L 25706.16,180589.4 L 25706.16,180553.8 L 25706.16,180482.62 z M 20723.508,169508.58 L 20758.925,169472.98 L 20758.925,169437.39 L 20794.341,169401.8 L 20865.175,169401.8 L 20865.175,169437.39 L 20865.175,169472.98 L 20865.175,169508.58 L 20865.175,169544.17 L 20936.009,169615.36 L 20936.009,169650.95 L 20865.175,169650.95 L 20865.175,169686.55 L 20829.758,169722.14 L 20794.341,169722.14 L 20758.925,169686.55 L 20758.925,169650.95 L 20794.341,169579.77 L 20758.925,169544.17 L 20723.508,169544.17 L 20723.508,169508.58 z M 21289.166,168834.33 L 21289.166,168798.74 L 21253.749,168763.14 L 21289.166,168727.55 L 21289.166,168656.36 L 21324.583,168620.77 L 21360,168585.18 L 21501.668,168620.77 L 21501.668,168656.36 L 21537.084,168656.36 L 21572.501,168691.96 L 21572.501,168727.55 L 21572.501,168763.14 L 21537.084,168763.14 L 21501.668,168763.14 L 21466.251,168798.74 L 21430.834,168798.74 L 21395.417,168798.74 L 21360,168763.14 L 21360,168798.74 L 21360,168834.33 L 21360,168869.93 L 21289.166,168834.33 z M 16730.505,180020.92 L 16730.505,179985.32 L 16730.505,179949.73 L 16765.922,179914.14 L 16907.59,179914.14 L 16978.423,179914.14 L 16943.007,180020.92 L 16943.007,180092.1 L 16943.007,180127.7 L 16907.59,180127.7 L 16907.59,180163.29 L 16801.339,180163.29 L 16765.922,180127.7 L 16765.922,180092.1 L 16765.922,180056.51 L 16730.505,180020.92 z M 51856.987,167449.23 L 51821.57,167413.64 L 51821.57,167378.04 L 51856.987,167342.45 L 51926.809,167235.67 L 51962.226,167128.89 L 51997.643,167128.89 L 52068.476,167378.04 L 52068.476,167413.64 L 52033.059,167484.82 L 51997.643,167519.4 L 51962.226,167484.82 L 51926.809,167449.23 L 51891.392,167449.23 L 51856.987,167449.23 z M 24822.761,189823.42 L 24788.356,189787.82 L 24858.178,189645.45 L 24893.595,189574.26 L 24893.595,189538.67 L 24893.595,189503.07 L 24929.012,189467.48 L 24964.428,189467.48 L 24999.845,189467.48 L 25070.679,189467.48 L 25070.679,189538.67 L 25070.679,189574.26 L 25035.262,189645.45 L 24999.845,189681.04 L 24999.845,189716.63 L 24893.595,189787.82 L 24858.178,189823.42 L 24822.761,189823.42 z M 18568.136,176185.95 L 18532.719,176079.17 L 18568.136,176043.58 L 18603.553,176043.58 L 18638.97,176007.98 L 18638.97,175972.39 L 18674.387,175901.2 L 18780.638,175936.8 L 18816.055,175936.8 L 18816.055,175972.39 L 18816.055,176007.98 L 18780.638,176043.58 L 18709.804,176114.76 L 18674.387,176220.53 L 18638.97,176256.12 L 18568.136,176185.95 z M 17755.571,172669.3 L 17790.988,172598.11 L 17790.988,172527.94 L 17790.988,172491.33 L 17826.405,172491.33 L 17861.822,172491.33 L 17968.073,172491.33 L 18002.478,172491.33 L 18037.895,172527.94 L 18037.895,172562.52 L 18037.895,172633.7 L 18002.478,172633.7 L 17932.656,172669.3 L 17897.239,172704.89 L 17861.822,172740.48 L 17790.988,172740.48 L 17755.571,172740.48 L 17755.571,172704.89 L 17755.571,172669.3 z M 18956.71,177819.19 L 19027.544,177712.41 L 19027.544,177676.82 L 18956.71,177676.82 L 18956.71,177641.22 L 18956.71,177605.63 L 18992.127,177570.04 L 19027.544,177535.46 L 19062.961,177535.46 L 19098.378,177535.46 L 19098.378,177570.04 L 19133.795,177641.22 L 19169.212,177676.82 L 19169.212,177712.41 L 19133.795,177783.6 L 19169.212,177890.38 L 19133.795,177996.14 L 19098.378,178031.74 L 19027.544,177996.14 L 18992.127,177996.14 L 18992.127,177925.97 L 18956.71,177890.38 L 18956.71,177854.79 L 18956.71,177819.19 z M 23939.362,178919.55 L 24010.196,178849.38 L 24045.613,178813.78 L 24151.864,178778.19 L 24187.281,178778.19 L 24222.697,178813.78 L 24222.697,178849.38 L 24258.114,178849.38 L 24293.531,178883.95 L 24293.531,178919.55 L 24293.531,178990.73 L 24293.531,179026.33 L 24293.531,179061.92 L 24258.114,179097.51 L 24222.697,179133.11 L 24151.864,179061.92 L 24116.447,179061.92 L 24116.447,179026.33 L 24081.03,179026.33 L 24010.196,179061.92 L 23974.779,179061.92 L 23974.779,179026.33 L 24010.196,179026.33 L 24010.196,178955.14 L 23974.779,178919.55 L 23939.362,178955.14 L 23939.362,178919.55 z M 22314.232,169082.47 L 22314.232,169046.88 L 22314.232,168975.69 L 22314.232,168905.52 L 22385.066,168834.33 L 22631.973,168691.96 L 22667.39,168656.36 L 22702.806,168620.77 L 22738.223,168585.18 L 22773.64,168549.58 L 22809.057,168549.58 L 22844.474,168585.18 L 22809.057,168620.77 L 22773.64,168656.36 L 22738.223,168691.96 L 22667.39,168798.74 L 22631.973,168798.74 L 22561.139,168834.33 L 22525.722,168869.93 L 22491.317,168940.1 L 22420.483,169011.28 L 22385.066,169118.06 L 22349.649,169153.66 L 22278.816,169153.66 L 22278.816,169118.06 L 22314.232,169082.47 z M 24434.187,178138.52 L 24434.187,178102.93 L 24434.187,178031.74 L 24434.187,177996.14 L 24434.187,177925.97 L 24434.187,177890.38 L 24434.187,177854.79 L 24469.604,177819.19 L 24505.021,177783.6 L 24575.855,177748.01 L 24611.271,177712.41 L 24646.688,177676.82 L 24682.105,177676.82 L 24682.105,177748.01 L 24717.522,177819.19 L 24717.522,177854.79 L 24682.105,177925.97 L 24717.522,177961.57 L 24717.522,178031.74 L 24682.105,178067.33 L 24611.271,178138.52 L 24505.021,178138.52 L 24434.187,178138.52 z M 53906.107,167378.04 L 53870.691,167342.45 L 53870.691,167271.26 L 53906.107,167235.67 L 53976.941,167164.48 L 53976.941,167093.29 L 54012.358,167093.29 L 54012.358,167128.89 L 54047.775,167128.89 L 54118.609,167164.48 L 54223.848,167164.48 L 54259.265,167200.07 L 54259.265,167271.26 L 54365.515,167306.85 L 54365.515,167413.64 L 54294.681,167449.23 L 54259.265,167484.82 L 54118.609,167519.4 L 54047.775,167554.99 L 53941.524,167554.99 L 53906.107,167519.4 L 53906.107,167484.82 L 53906.107,167378.04 z M 19628.619,181086.69 L 19628.619,181015.51 L 19664.036,181015.51 L 19664.036,180908.72 L 19699.453,180908.72 L 19770.287,180873.13 L 19804.692,180801.94 L 19840.109,180801.94 L 19875.526,180801.94 L 19946.36,180801.94 L 19981.777,180801.94 L 20017.193,180801.94 L 20088.027,180837.54 L 20158.861,180837.54 L 20194.278,180837.54 L 20265.112,180837.54 L 20299.517,180801.94 L 20370.351,180660.59 L 20405.767,180624.99 L 20441.184,180589.4 L 20476.601,180589.4 L 20547.435,180589.4 L 20582.852,180589.4 L 20618.269,180660.59 L 20653.686,180696.18 L 20653.686,180731.77 L 20512.018,180731.77 L 20476.601,180766.35 L 20334.934,180908.72 L 20299.517,180944.32 L 20265.112,180944.32 L 20194.278,180944.32 L 20158.861,180944.32 L 20123.444,180908.72 L 20052.61,180944.32 L 19946.36,180979.91 L 19840.109,180979.91 L 19770.287,181015.51 L 19734.87,181051.1 L 19699.453,181051.1 L 19664.036,181086.69 L 19628.619,181086.69 z M 19910.943,169757.73 L 19910.943,169722.14 L 19910.943,169686.55 L 19946.36,169686.55 L 19981.777,169650.95 L 20052.61,169544.17 L 20088.027,169472.98 L 20088.027,169401.8 L 20123.444,169401.8 L 20158.861,169437.39 L 20194.278,169472.98 L 20194.278,169508.58 L 20194.278,169544.17 L 20229.695,169544.17 L 20334.934,169508.58 L 20370.351,169508.58 L 20405.767,169472.98 L 20476.601,169401.8 L 20512.018,169401.8 L 20547.435,169401.8 L 20512.018,169437.39 L 20476.601,169508.58 L 20476.601,169579.77 L 20441.184,169615.36 L 20405.767,169650.95 L 20334.934,169757.73 L 20299.517,169757.73 L 20123.444,169899.09 L 20088.027,169899.09 L 20052.61,169863.5 L 20017.193,169863.5 L 19981.777,169899.09 L 19946.36,169934.68 L 19910.943,169863.5 L 19910.943,169793.33 L 19910.943,169757.73 z M 25247.764,169189.25 L 25317.586,169118.06 L 25353.002,169046.88 L 25423.836,168975.69 L 25459.253,168905.52 L 25494.67,168834.33 L 25530.087,168798.74 L 25530.087,168763.14 L 25600.921,168727.55 L 25706.16,168549.58 L 25776.993,168513.99 L 25812.41,168513.99 L 25847.827,168513.99 L 25918.661,168513.99 L 25954.078,168549.58 L 26024.912,168549.58 L 26060.329,168620.77 L 26060.329,168656.36 L 26024.912,168656.36 L 25954.078,168727.55 L 25918.661,168727.55 L 25847.827,168727.55 L 25812.41,168727.55 L 25776.993,168727.55 L 25706.16,168869.93 L 25741.576,168869.93 L 25776.993,168905.52 L 25776.993,168940.1 L 25741.576,169011.28 L 25741.576,169046.88 L 25706.16,169082.47 L 25671.755,169082.47 L 25636.338,169046.88 L 25600.921,169046.88 L 25565.504,169082.47 L 25530.087,169118.06 L 25530.087,169153.66 L 25423.836,169189.25 L 25388.419,169224.85 L 25353.002,169331.63 L 25317.586,169367.22 L 25282.169,169331.63 L 25247.764,169331.63 L 25247.764,169260.44 L 25247.764,169189.25 z M 16624.254,176007.98 L 16659.671,175724.25 L 17366.997,175403.91 L 17508.665,175794.42 L 16836.756,176682.23 L 16624.254,176007.98 z M 21572.501,180411.43 L 22596.556,179949.73 L 23303.882,179026.33 L 23727.873,179345.65 L 23939.362,179204.3 L 23798.707,179559.22 L 22915.308,180092.1 L 22738.223,180482.62 L 21677.74,180624.99 L 21572.501,180411.43 z M 45920.102,179204.3 L 45425.278,179026.33 L 45849.269,178635.81 L 45565.933,178102.93 L 44577.296,178635.81 L 44895.036,177961.57 L 44435.628,177393.09 L 43693.897,177143.93 L 43658.48,177321.9 L 42562.58,177250.71 L 41503.109,177854.79 L 41679.182,178138.52 L 40618.698,179594.81 L 40478.043,180518.21 L 39452.976,180731.77 L 40054.052,180163.29 L 39311.309,180020.92 L 39311.309,179842.95 L 39417.56,179239.89 L 40054.052,178174.11 L 39947.801,177535.46 L 39699.883,177464.27 L 38887.318,178209.71 L 38604.995,177286.3 L 37863.264,177605.63 L 37544.511,177179.52 L 37579.928,176824.6 L 38181.004,176291.72 L 38640.412,176362.9 L 39099.819,175936.8 L 39452.976,176043.58 L 40054.052,175510.69 L 40937.451,175617.47 L 41361.441,174871.02 L 41078.106,174551.69 L 41572.931,174232.37 L 41891.683,174409.32 L 41785.432,174054.4 L 42032.339,173485.92 L 43021.988,172704.89 L 42880.32,173983.21 L 43305.323,173947.62 L 43339.728,174339.15 L 43729.314,174303.55 L 44047.054,173521.51 L 44471.045,173344.56 L 44329.378,172918.45 L 45354.444,172847.26 L 45496.112,172562.52 L 46026.353,172385.56 L 45920.102,171674.71 L 45389.861,171674.71 L 46838.918,171177.41 L 46838.918,170645.54 L 47121.241,170681.14 L 47085.824,170964.87 L 48428.631,171107.24 L 48676.549,171177.41 L 48641.132,171603.52 L 49595.365,171603.52 L 49665.187,171959.46 L 49948.522,171923.86 L 49312.03,172349.97 L 48994.289,171995.05 L 48181.724,172065.22 L 48252.558,172385.56 L 48746.371,172527.94 L 48852.622,172278.78 L 49206.791,173095.4 L 49489.114,173273.37 L 50902.754,172954.05 L 51326.745,173024.22 L 51114.244,173770.67 L 51255.911,174409.32 L 51609.069,174694.07 L 52210.144,174480.51 L 52068.476,174232.37 L 52492.467,174161.18 L 52775.802,173485.92 L 54118.609,173095.4 L 54294.681,173414.73 L 53764.44,173912.02 L 53234.198,174516.1 L 53340.449,174977.8 L 53694.618,174977.8 L 53199.793,175724.25 L 53375.866,175972.39 L 53870.691,175688.66 L 54931.174,175155.77 L 54789.506,175581.88 L 55390.582,176327.31 L 56451.065,176469.68 L 56238.563,177073.76 L 55319.748,177321.9 L 54754.089,177854.79 L 54012.358,177925.97 L 53799.857,177961.57 L 54012.358,177641.22 L 54330.098,177250.71 L 53941.524,176753.42 L 53446.7,176540.87 L 51997.643,176824.6 L 51220.495,177783.6 L 50761.087,177428.68 L 50230.845,177464.27 L 49948.522,178031.74 L 50443.347,178209.71 L 50478.763,178493.44 L 49524.531,179133.11 L 49489.114,178671.41 L 48817.205,178316.49 L 47509.815,178564.63 L 47192.075,178849.38 L 46344.093,178849.38 L 45920.102,179204.3 z M 115853.3,166738.37 L 115817.88,166738.37 L 115782.47,166702.78 L 115817.88,166631.59 L 115853.3,166597.01 L 115853.3,166631.59 L 115888.72,166668.2 L 115888.72,166738.37 L 115853.3,166738.37 z M 94897.628,168478.39 L 94863.223,168443.82 L 94863.223,168408.22 L 94897.628,168372.63 L 94933.045,168337.04 L 94968.462,168337.04 L 95003.879,168372.63 L 94968.462,168408.22 L 94897.628,168478.39 z M 59701.324,163684.43 L 59736.741,163648.84 L 59772.158,163648.84 L 59807.575,163648.84 L 59807.575,163684.43 L 59807.575,163720.03 L 59736.741,163791.22 L 59701.324,163791.22 L 59701.324,163755.62 L 59701.324,163684.43 z M 55213.497,166170.91 L 55248.914,166134.3 L 55284.331,166099.72 L 55284.331,166134.3 L 55319.748,166134.3 L 55319.748,166170.91 L 55319.748,166205.48 L 55248.914,166241.08 L 55213.497,166241.08 L 55178.08,166241.08 L 55213.497,166170.91 z M 115429.31,169899.09 L 115393.89,169899.09 L 115358.48,169863.5 L 115323.06,169793.33 L 115358.48,169757.73 L 115393.89,169757.73 L 115429.31,169793.33 L 115429.31,169827.9 L 115464.73,169863.5 L 115464.73,169899.09 L 115429.31,169899.09 z M 71363.604,160630.5 L 71328.187,160630.5 L 71363.604,160559.31 L 71363.604,160488.12 L 71433.425,160523.72 L 71433.425,160559.31 L 71504.259,160594.9 L 71468.842,160630.5 L 71433.425,160630.5 L 71363.604,160630.5 z M 64648.559,160452.53 L 64719.393,160452.53 L 64754.81,160488.12 L 64719.393,160559.31 L 64648.559,160666.09 L 64648.559,160630.5 L 64648.559,160594.9 L 64648.559,160559.31 L 64683.976,160523.72 L 64648.559,160488.12 L 64648.559,160452.53 z M 64896.478,160594.9 L 64861.061,160559.31 L 64896.478,160488.12 L 64896.478,160452.53 L 65002.728,160416.94 L 65002.728,160488.12 L 65002.728,160559.31 L 64931.894,160594.9 L 64896.478,160594.9 z M 110235.17,166738.37 L 110199.75,166738.37 L 110164.33,166702.78 L 110128.92,166738.37 L 110128.92,166668.2 L 110164.33,166668.2 L 110269.57,166631.59 L 110304.99,166668.2 L 110304.99,166702.78 L 110304.99,166738.37 L 110269.57,166738.37 L 110235.17,166738.37 z M 65531.958,164679.02 L 65567.375,164643.43 L 65602.792,164607.84 L 65602.792,164572.24 L 65638.209,164572.24 L 65673.626,164607.84 L 65638.209,164643.43 L 65638.209,164679.02 L 65602.792,164750.21 L 65602.792,164784.79 L 65567.375,164784.79 L 65531.958,164784.79 L 65496.541,164714.62 L 65531.958,164679.02 z M 108644.44,166845.15 L 108750.69,166773.97 L 108786.11,166773.97 L 108786.11,166809.56 L 108750.69,166845.15 L 108750.69,166880.75 L 108786.11,166880.75 L 108821.53,166951.93 L 108750.69,166987.53 L 108715.28,166951.93 L 108644.44,166916.34 L 108609.03,166880.75 L 108644.44,166845.15 z M 65709.042,161659.66 L 65779.876,161624.07 L 65850.71,161624.07 L 65955.949,161624.07 L 65991.366,161659.66 L 65991.366,161730.85 L 65991.366,161766.44 L 65815.293,161695.26 L 65709.042,161730.85 L 65709.042,161695.26 L 65709.042,161659.66 z M 91364.033,170325.2 L 91364.033,170289.6 L 91434.867,170183.84 L 91470.284,170219.43 L 91541.118,170289.6 L 91541.118,170325.2 L 91470.284,170325.2 L 91434.867,170360.79 L 91399.45,170431.98 L 91364.033,170467.57 L 91328.616,170431.98 L 91293.199,170431.98 L 91293.199,170396.39 L 91364.033,170325.2 z M 115641.81,166490.23 L 115677.23,166454.64 L 115711.63,166454.64 L 115782.47,166419.05 L 115817.88,166383.45 L 115888.72,166383.45 L 115924.13,166419.05 L 115924.13,166454.64 L 115924.13,166490.23 L 115924.13,166525.83 L 115888.72,166525.83 L 115853.3,166525.83 L 115817.88,166525.83 L 115782.47,166525.83 L 115711.63,166525.83 L 115641.81,166525.83 L 115641.81,166490.23 z M 108220.45,167342.45 L 108185.04,167306.85 L 108185.04,167271.26 L 108255.87,167200.07 L 108255.87,167164.48 L 108291.29,167200.07 L 108362.12,167164.48 L 108397.54,167128.89 L 108432.95,167128.89 L 108467.36,167164.48 L 108502.78,167200.07 L 108538.19,167271.26 L 108502.78,167271.26 L 108467.36,167271.26 L 108432.95,167235.67 L 108397.54,167271.26 L 108291.29,167306.85 L 108255.87,167342.45 L 108220.45,167342.45 z M 65567.375,166347.86 L 65531.958,166312.27 L 65567.375,166276.67 L 65567.375,166241.08 L 65567.375,166205.48 L 65567.375,166170.91 L 65567.375,166134.3 L 65602.792,166134.3 L 65638.209,166134.3 L 65673.626,166205.48 L 65709.042,166241.08 L 65744.459,166241.08 L 65744.459,166276.67 L 65744.459,166347.86 L 65709.042,166347.86 L 65673.626,166347.86 L 65602.792,166383.45 L 65567.375,166383.45 L 65567.375,166347.86 z M 114899.07,166383.45 L 114934.49,166383.45 L 115005.32,166419.05 L 115076.15,166383.45 L 115146.99,166383.45 L 115182.4,166383.45 L 115217.82,166419.05 L 115217.82,166454.64 L 115217.82,166490.23 L 115182.4,166525.83 L 115111.57,166525.83 L 115040.74,166490.23 L 114969.9,166525.83 L 114934.49,166490.23 L 114899.07,166454.64 L 114863.65,166419.05 L 114899.07,166383.45 z M 65991.366,166205.48 L 65991.366,166170.91 L 66062.2,166099.72 L 66097.616,166028.53 L 66097.616,165992.94 L 66133.033,165957.35 L 66168.45,165957.35 L 66203.867,165957.35 L 66239.284,165992.94 L 66203.867,166099.72 L 66239.284,166170.91 L 66239.284,166205.48 L 66203.867,166205.48 L 66133.033,166276.67 L 66097.616,166312.27 L 66062.2,166276.67 L 65991.366,166312.27 L 65955.949,166276.67 L 65991.366,166205.48 z M 67546.674,163577.65 L 67546.674,163542.06 L 67652.924,163436.3 L 67688.341,163436.3 L 67828.997,163400.7 L 67864.414,163436.3 L 67864.414,163506.47 L 67864.414,163542.06 L 67758.163,163648.84 L 67617.507,163648.84 L 67582.091,163648.84 L 67546.674,163613.25 L 67546.674,163577.65 z M 68288.405,164039.35 L 68323.822,164003.76 L 68323.822,163932.57 L 68359.239,163896.98 L 68394.655,163862.4 L 68430.072,163826.81 L 68536.323,163720.03 L 68571.74,163755.62 L 68571.74,163896.98 L 68430.072,164146.14 L 68394.655,164146.14 L 68359.239,164146.14 L 68252.988,164181.73 L 68252.988,164146.14 L 68288.405,164039.35 z M 114793.83,167449.23 L 114758.41,167449.23 L 114758.41,167413.64 L 114793.83,167378.04 L 114828.23,167306.85 L 114828.23,167271.26 L 114863.65,167271.26 L 114969.9,167306.85 L 115005.32,167306.85 L 115040.74,167271.26 L 115076.15,167271.26 L 115146.99,167235.67 L 115182.4,167200.07 L 115253.24,167164.48 L 115287.64,167164.48 L 115323.06,167164.48 L 115323.06,167128.89 L 115358.48,167093.29 L 115393.89,167093.29 L 115429.31,167058.72 L 115429.31,167023.12 L 115500.14,167023.12 L 115500.14,167058.72 L 115500.14,167093.29 L 115464.73,167164.48 L 115429.31,167200.07 L 115287.64,167271.26 L 115253.24,167271.26 L 115182.4,167271.26 L 115076.15,167306.85 L 115005.32,167378.04 L 114934.49,167413.64 L 114863.65,167449.23 L 114793.83,167449.23 z M 67758.163,160594.9 L 67758.163,160523.72 L 67758.163,160381.34 L 67828.997,160345.75 L 67864.414,160275.58 L 67935.248,160238.97 L 68041.498,160238.97 L 68112.332,160168.8 L 68147.749,160168.8 L 68112.332,160275.58 L 68112.332,160310.15 L 68041.498,160416.94 L 67899.831,160488.12 L 67793.58,160559.31 L 67758.163,160594.9 z M 65496.541,164927.16 L 65567.375,164891.57 L 65638.209,164855.98 L 65673.626,164855.98 L 65709.042,164891.57 L 65779.876,164891.57 L 65850.71,164927.16 L 65850.71,164962.76 L 65779.876,165069.54 L 65779.876,165140.72 L 65744.459,165176.32 L 65638.209,165211.91 L 65602.792,165211.91 L 65602.792,165140.72 L 65567.375,165069.54 L 65567.375,164998.35 L 65531.958,164998.35 L 65496.541,164998.35 L 65461.124,164962.76 L 65496.541,164927.16 z M 94544.471,169224.85 L 94579.888,169189.25 L 94650.721,169153.66 L 94650.721,169118.06 L 94650.721,169082.47 L 94615.305,169046.88 L 94615.305,169011.28 L 94650.721,168975.69 L 94686.138,168975.69 L 94686.138,168940.1 L 94686.138,168905.52 L 94721.555,168905.52 L 94756.972,168869.93 L 94756.972,168905.52 L 94756.972,168940.1 L 94792.389,168975.69 L 94792.389,169011.28 L 94792.389,169046.88 L 94863.223,169046.88 L 94897.628,169082.47 L 94968.462,169153.66 L 94968.462,169189.25 L 94968.462,169224.85 L 94897.628,169260.44 L 94863.223,169260.44 L 94579.888,169296.03 L 94544.471,169260.44 L 94544.471,169224.85 z M 118645.16,168869.93 L 118645.16,168834.33 L 118645.16,168798.74 L 118716,168798.74 L 118751.42,168798.74 L 118822.25,168834.33 L 118822.25,168869.93 L 118893.08,168940.1 L 118927.49,168975.69 L 118962.9,168975.69 L 119069.16,169118.06 L 119104.57,169153.66 L 119139.99,169189.25 L 119139.99,169224.85 L 119069.16,169224.85 L 118998.32,169224.85 L 118962.9,169260.44 L 118927.49,169224.85 L 118893.08,169260.44 L 118786.83,169224.85 L 118786.83,169189.25 L 118751.42,169082.47 L 118751.42,169011.28 L 118716,168940.1 L 118716,168905.52 L 118645.16,168869.93 z M 68147.749,163115.95 L 68183.166,163044.77 L 68394.655,163044.77 L 68500.906,163044.77 L 68571.74,163044.77 L 68607.157,163080.36 L 68607.157,163115.95 L 68607.157,163187.14 L 68500.906,163258.33 L 68465.489,163293.92 L 68430.072,163329.52 L 68252.988,163329.52 L 68183.166,163329.52 L 68147.749,163258.33 L 68147.749,163115.95 z M 115429.31,169508.58 L 115500.14,169437.39 L 115606.39,169367.22 L 115641.81,169367.22 L 115711.63,169367.22 L 115782.47,169401.8 L 115817.88,169472.98 L 115888.72,169579.77 L 115924.13,169650.95 L 115924.13,169686.55 L 115924.13,169722.14 L 115888.72,169757.73 L 115817.88,169793.33 L 115817.88,169827.9 L 115782.47,169827.9 L 115747.05,169827.9 L 115641.81,169757.73 L 115570.98,169757.73 L 115570.98,169722.14 L 115500.14,169686.55 L 115464.73,169722.14 L 115429.31,169722.14 L 115393.89,169650.95 L 115393.89,169615.36 L 115429.31,169508.58 z M 71504.259,161375.93 L 71468.842,161340.34 L 71504.259,161304.74 L 71575.093,161269.15 L 71645.927,161233.56 L 71681.344,161197.96 L 71716.761,161163.39 L 71610.51,161127.79 L 71610.51,161056.6 L 71645.927,161021.01 L 71681.344,160949.82 L 71645.927,160949.82 L 71539.676,160949.82 L 71539.676,160914.23 L 71504.259,160878.64 L 71539.676,160807.45 L 71575.093,160736.26 L 71645.927,160666.09 L 71681.344,160666.09 L 71786.583,160594.9 L 71821.999,160559.31 L 71928.25,160594.9 L 71892.833,160630.5 L 71857.416,160666.09 L 71821.999,160630.5 L 71752.178,160701.68 L 71752.178,160736.26 L 71752.178,160914.23 L 71786.583,160949.82 L 71821.999,160949.82 L 71999.084,160949.82 L 71963.667,161021.01 L 71928.25,161092.2 L 71892.833,161163.39 L 71928.25,161197.96 L 71892.833,161233.56 L 71857.416,161304.74 L 71821.999,161340.34 L 71752.178,161340.34 L 71681.344,161304.74 L 71610.51,161340.34 L 71504.259,161375.93 z M 121048.45,147916.44 L 121295.36,147241.17 L 121119.29,146886.25 L 121366.19,146495.74 L 121614.11,146531.33 L 121719.35,146850.66 L 121401.61,147276.77 L 121719.35,147702.87 L 121366.19,148057.79 L 121048.45,147916.44 z M 59065.844,164891.57 L 59241.916,164607.84 L 60231.566,164252.92 L 60549.306,165033.94 L 60020.076,165317.68 L 59665.907,164962.76 L 59383.584,165317.68 L 59065.844,164891.57 z M 66663.275,164855.98 L 66663.275,164394.27 L 67016.432,164217.32 L 67228.933,163755.62 L 67899.831,163684.43 L 67970.665,164074.95 L 67405.006,164536.65 L 66839.348,165602.43 L 66663.275,164855.98 z M 114723,154414.82 L 114015.67,154557.2 L 114369.84,154983.31 L 114263.59,155232.46 L 113944.84,155196.87 L 113875.01,154912.12 L 113167.69,154947.71 L 113096.85,154663.98 L 112849.95,154628.39 L 112956.2,154343.64 L 112461.37,152888.36 L 112991.62,153029.72 L 113415.61,152852.77 L 113768.76,153029.72 L 113875.01,153669.39 L 113591.68,153172.1 L 113167.69,153455.83 L 113273.94,153847.36 L 113768.76,154379.23 L 114723,154414.82 z M 70126.036,159316.58 L 70303.12,159103.02 L 71221.936,159209.8 L 70585.444,160275.58 L 70762.528,160345.75 L 70656.277,160701.68 L 70903.184,160771.85 L 70444.788,160985.42 L 70161.453,160807.45 L 69348.888,161553.9 L 68783.229,161553.9 L 68465.489,161375.93 L 68747.813,160771.85 L 68288.405,160381.34 L 68323.822,159848.45 L 68995.731,159529.13 L 69525.972,159778.28 L 69631.211,159387.77 L 70019.785,159564.72 L 70126.036,159316.58 z M 117479.44,149656.46 L 116525.21,150473.08 L 116807.53,150686.64 L 116949.2,151644.62 L 117655.52,151858.18 L 117160.69,152462.26 L 116913.78,151929.37 L 116312.71,152603.61 L 115924.13,151715.81 L 115076.15,151644.62 L 114687.58,151289.7 L 113556.26,151680.21 L 112532.21,152603.61 L 112108.22,152319.88 L 112213.46,152036.15 L 111436.31,151610.04 L 111118.57,150970.37 L 111400.89,150508.67 L 111931.13,150792.4 L 112425.96,150756.81 L 112461.37,150259.52 L 113344.77,149337.13 L 113380.19,148981.19 L 114121.92,149194.76 L 114793.83,149798.83 L 115853.3,149940.19 L 116065.8,149798.83 L 115994.97,149265.94 L 116454.38,148875.43 L 116736.7,148945.6 L 116984.62,148555.09 L 117160.69,148483.9 L 117231.52,148981.19 L 117584.68,148555.09 L 118150.34,148661.87 L 118150.34,149265.94 L 117479.44,149656.46 z" class="fil2"/>
 </svg>
